<svg width="106" height="28" viewBox="0 0 106 28" fill="none" xmlns="http://www.w3.org/2000/svg">
<path fill-rule="evenodd" clip-rule="evenodd" d="M94.128 3.39394V0.848485H106V3.39394H101.76V16.1212H98.368V3.39394H94.128ZM43.8774 4.83388C43.6104 5.38111 43.4324 6.01954 43.4324 6.74919C43.4324 7.38762 43.6104 8.02606 43.9664 8.6645C44.2334 9.21173 44.6784 9.57655 45.2124 9.94137C45.7464 10.215 46.3694 10.3974 47.0814 10.3974C47.7935 10.3974 48.4165 10.3062 48.9505 9.94137C49.4845 9.57655 49.8405 9.12052 50.1075 8.6645C50.3745 8.11726 50.5525 7.47883 50.5525 6.74919C50.5525 6.01954 50.3745 5.38111 50.1075 4.83388C49.8405 4.28664 49.3955 3.92182 48.8615 3.557C48.3275 3.28339 47.7044 3.10098 46.9924 3.10098C46.2804 3.10098 45.6574 3.19218 45.1234 3.557C44.5894 3.83062 44.1444 4.28664 43.8774 4.83388ZM46.9924 18.5147C44.9454 18.5147 42.7204 19.3355 42.7204 21.798C42.7204 24.2606 44.8564 24.9902 46.9034 25.0814C49.1285 25.0814 51.2645 24.2606 51.2645 21.798C51.2645 19.3355 49.1285 18.5147 46.9924 18.5147ZM40.4954 6.9316C40.4954 2.82736 43.3434 0.18241 47.0814 0.18241C50.7305 0.18241 53.5785 2.91857 53.6675 6.9316C53.6675 7.75244 53.5785 8.48209 53.3115 9.12052C52.5105 11.4007 50.383 12.6775 48.336 13.1336V15.6873C51.54 16.1433 54.3795 18.0586 54.3795 21.798C54.3795 25.9935 51.0865 28 47.0814 28C43.0764 28 39.7834 25.9935 39.7834 21.798C39.7834 18.0586 42.677 16.1433 45.792 15.6873V13.1336C43.656 12.6775 41.6524 11.4007 40.8514 9.12052C40.5844 8.48209 40.4954 7.75244 40.4954 6.9316ZM65.296 16.1212L57.664 0.848485H61.648L65.8606 9.94137L70.0141 0.848485H73.776L66.144 16.1212H65.296ZM27.984 16.1212L20.352 0.848485H24.168L28.2133 9.94137L32.5341 0.848485L36.464 0.912052L28.832 16.1212H27.984ZM12.1931 10.215C12.4601 9.57655 12.5491 8.93811 12.5491 8.20847C12.5491 7.47883 12.3711 6.8404 12.1931 6.20196L12.1931 6.20195C11.9261 5.56352 11.6591 5.01629 11.2141 4.56026C10.7691 4.10424 10.2351 3.73941 9.70109 3.4658C9.16709 3.28339 8.54408 3.10098 7.83207 3.10098C7.12007 3.10098 6.40806 3.28339 5.78505 3.4658C5.16205 3.73941 4.62804 4.10424 4.27204 4.56026C3.91604 5.01629 3.56003 5.56352 3.38203 6.20195C3.20403 6.84039 3.11503 7.47883 3.11503 8.20847C3.11503 8.93811 3.20403 9.57655 3.38203 10.215C3.56003 10.8534 3.91604 11.4007 4.27204 11.8567C4.71704 12.3127 5.16205 12.6775 5.78505 12.9511L5.78507 12.9511C6.40807 13.1336 7.03107 13.316 7.83207 13.316C8.54408 13.316 9.16709 13.2248 9.70109 12.9511C10.3241 12.6775 10.7691 12.3127 11.2141 11.8567C11.6591 11.4007 11.9261 10.8534 12.1931 10.215ZM12.72 0.848485H15.264V16.1212H12.72L12.2821 14.684L12.1041 14.5016L11.9261 14.684C11.5701 14.9577 11.2141 15.2313 10.7691 15.5049L10.7691 15.5049C10.3241 15.6873 9.87909 15.8697 9.34509 16.0521C8.89636 16.1288 8.36921 16.1254 7.89544 16.1224C7.80539 16.1218 7.71728 16.1212 7.632 16.1212C6.65299 16.1212 5.69605 16.0521 4.80605 15.6873C3.82704 15.3225 3.02603 14.7752 2.31402 14.0456C1.60202 13.316 1.06801 12.4951 0.623006 11.4919C0.178002 10.4886 0 9.39414 0 8.20847C0 7.0228 0.178002 5.92834 0.623006 4.92508C0.979009 4.01303 1.60202 3.10098 2.31402 2.37134C3.02603 1.64169 3.91604 1.09446 4.80605 0.729642C5.69605 0.364821 6.67506 0.18241 7.74307 0.18241C8.27708 0.18241 8.81108 0.273616 9.25609 0.364821C9.79009 0.456026 10.2351 0.638437 10.6801 0.912052C11.1251 1.18567 11.5701 1.45928 11.8371 1.8241L12.0151 2.00652L12.1931 1.8241L12.72 0.848485ZM83.7391 16.1214C83.6833 16.1213 83.6276 16.1212 83.5718 16.1212C82.5928 16.1212 81.7918 16.0521 80.9018 15.6873C80.1008 15.2313 79.3887 14.7752 78.8547 14.0456C78.3207 13.316 77.8757 12.4951 77.6977 11.5831L80.5458 10.3974C80.6348 10.9446 80.8128 11.4007 81.0798 11.8567C81.3468 12.3127 81.7028 12.5863 82.1478 12.8599C82.5038 13.1336 83.0378 13.2248 83.5718 13.2248C84.1058 13.2248 84.5508 13.1336 84.9068 12.9511C85.2628 12.8599 85.5298 12.5863 85.7078 12.3127C85.8858 12.0391 85.9748 11.7655 85.9748 11.4007C85.9748 10.9446 85.8858 10.5798 85.5298 10.3062C84.8274 9.73032 83.8292 9.50795 82.8077 9.28037C81.8878 9.07543 80.9488 8.86625 80.1898 8.39088C79.5667 8.02606 79.0327 7.47883 78.6767 6.84039C78.3207 6.20196 78.1427 5.47231 78.1427 4.65147C78.1427 3.83062 78.3207 3.19218 78.5877 2.64495C78.9437 2.09772 79.2998 1.55049 79.8338 1.18567C80.3678 0.729642 80.9018 0.456026 81.5248 0.273616C82.1478 0.0912054 82.7708 0 83.3938 0C84.1058 0 84.7288 0.182411 85.3518 0.364821C85.9748 0.547231 86.5088 0.912052 87.0428 1.27687C87.5768 1.64169 87.9328 2.18893 88.2888 2.73616C88.3348 2.83041 88.3808 2.91857 88.4253 3.00379C88.5529 3.24844 88.6678 3.46884 88.7338 3.73941L85.8858 4.83388C85.7078 3.557 84.6398 2.91857 83.4828 2.91857C82.5038 2.91857 81.2578 3.4658 81.2578 4.65147C81.2578 5.1987 81.4358 5.56352 81.7918 5.83713C82.1478 6.20196 82.5928 6.38437 83.2158 6.47557L84.8178 6.84039C85.6188 7.0228 86.4198 7.29642 87.0428 7.66124C87.6658 8.11726 88.1998 8.57329 88.5558 9.21173C88.9118 9.85016 89.0898 10.5798 89.0898 11.4919C89.0898 12.1303 88.9118 12.7687 88.6448 13.316C88.3778 13.9544 88.0218 14.4104 87.4878 14.8665C87.0428 15.3225 86.4198 15.5961 85.7968 15.8697C85.2172 16.1243 84.4835 16.1229 83.7391 16.1214Z" fill="black"/>
</svg>
